<svg xmlns="http://www.w3.org/2000/svg" xmlns:xlink="http://www.w3.org/1999/xlink" width="55" height="40" viewBox="0 0 55 40" version="1.1"><g stroke="none" stroke-width="1" fill="none" fill-rule="evenodd"><g transform="translate(-630.000000, -993.000000)"><g id="Group-10" transform="translate(0.000000, 905.000000)"><g transform="translate(631.000000, 89.000000)"><path d="M0.29 19.35C-0.1 18.96-0.09 18.32 0.29 17.93L17.52 0.71C17.91 0.32 18.68 0 19.22 0L48 0C50.21 0 52.01 1.8 52.01 4.01L52.01 33.27C52.01 35.49 50.22 37.28 48 37.28L19.22 37.28C18.67 37.28 17.9 36.96 17.52 36.57L0.29 19.35Z" id="Back-Copy-2" stroke="#030303" stroke-width="2"/><path d="M33.47 20.12L41 27.65C41.39 28.04 42.03 28.04 42.42 27.65L42.65 27.42C43.04 27.03 43.04 26.39 42.65 26L35.12 18.47 42.65 10.94C43.04 10.55 43.04 9.91 42.65 9.52L42.42 9.29C42.03 8.9 41.39 8.9 41 9.29L33.47 16.82 25.94 9.3C25.55 8.9 24.91 8.9 24.52 9.29L24.29 9.53C23.9 9.92 23.9 10.55 24.29 10.94L31.82 18.47 24.3 26C23.9 26.39 23.9 27.03 24.29 27.42L24.53 27.65C24.92 28.04 25.55 28.04 25.94 27.65L33.47 20.12Z" id="Combined-Shape" fill="#030303"/></g></g></g></g></svg>